<svg width="136" height="139" viewBox="0 0 136 139" fill="none" xmlns="http://www.w3.org/2000/svg">
    <path fill-rule="evenodd" clip-rule="evenodd" d="M67.932.792c37.432 0 67.786 31.15 67.752 69.52-.06 37.707-30.666 68.69-67.925 68.683-37.446 0-67.799-31.149-67.759-69.52C.007 31.782 30.66.785 67.932.792z" fill="#05A2B3"/>
    <path fill-rule="evenodd" clip-rule="evenodd" d="M112.464 38.631c-.539 1.018-31.77 44.975-49.815 65.431-4.271 4.835-11.437 4.961-15.702-.253-9.867-12.05-17.838-22.51-27.093-37.048-1.277-1.995-2.854-4.874-.566-7.395 0 0 2.522-2.806 7.985 1.051 6.94 4.894 14.325 9.676 21.138 14.218 3.899 2.594 6.387 2.82 9.98.033C73.528 62.964 107.46 37.72 109.39 36.543c3.406-2.068 3.839.519 3.027 2.088h.047z" fill="#fff"/>
    <path fill-rule="evenodd" clip-rule="evenodd" d="M112.464 38.631c-.539 1.018-31.77 44.975-49.815 65.431-4.271 4.835-11.437 4.961-15.702-.253-9.867-12.05-17.838-22.51-27.093-37.048-1.277-1.995-2.854-4.874-.566-7.395 0 0 2.522-2.806 7.985 1.051 6.94 4.894 14.325 9.676 21.138 14.218 3.899 2.594 6.387 2.82 9.98.033C73.528 62.964 107.46 37.72 109.39 36.543c3.406-2.068 3.839.519 3.027 2.088h.047z" fill="#fff"/>
</svg>
